<?xml version="1.0" encoding="UTF-8"?>
<svg version="1.1" xmlns="http://www.w3.org/2000/svg" width="96" height="96">
<path d="M0 0 C2.84809926 0.30790262 4.58286148 0.65478191 6.8125 2.5 C8.60081417 6.26487195 8.23646554 9.90126405 8 14 C7.34 14 6.68 14 6 14 C6 23.24 6 32.48 6 42 C8.64 42 11.28 42 14 42 C13.85973717 39.68715544 13.71264442 37.37472409 13.5625 35.0625 C13.48128906 33.77472656 13.40007813 32.48695312 13.31640625 31.16015625 C13.35080812 28.13976043 13.35080812 28.13976043 12 27 C11.43003299 22.56173228 11.55768385 18.96155686 13.4375 14.875 C16.89880927 10.99157984 20.77788973 8.01470823 25 5 C25.886875 4.34 26.77375 3.68 27.6875 3 C30.8581765 1.62889665 32.66525131 2.19916749 36 3 C42.50161732 6.54900314 48.63119246 11.26238492 52 18 C52.09472912 19.51845202 52.1298841 21.04110384 52.125 22.5625 C52.12886719 23.77099609 52.12886719 23.77099609 52.1328125 25.00390625 C52 27 52 27 51 28 C50.76472227 30.34987262 50.58613583 32.70556039 50.4375 35.0625 C50.35371094 36.35285156 50.26992187 37.64320312 50.18359375 38.97265625 C50.09271484 40.47119141 50.09271484 40.47119141 50 42 C52.64 42 55.28 42 58 42 C58 32.76 58 23.52 58 14 C57.34 14 56.68 14 56 14 C55.36980306 5.96498906 55.36980306 5.96498906 58 1.9375 C58.66 1.298125 59.32 0.65875 60 0 C62.84809926 0.30790262 64.58286148 0.65478191 66.8125 2.5 C68.60081417 6.26487195 68.23646554 9.90126405 68 14 C67.34 14 66.68 14 66 14 C66 23.24 66 32.48 66 42 C67.98 42.495 67.98 42.495 70 43 C70 52.57 70 62.14 70 72 C44.92 72 19.84 72 -6 72 C-6 62.43 -6 52.86 -6 43 C-4.02 42.505 -4.02 42.505 -2 42 C-2 32.76 -2 23.52 -2 14 C-2.66 14 -3.32 14 -4 14 C-4.63019694 5.96498906 -4.63019694 5.96498906 -2 1.9375 C-1.34 1.298125 -0.68 0.65875 0 0 Z " fill="#65C3F5" transform="translate(16,14)"/>
<path d="M0 0 C6.50161732 3.54900314 12.63119246 8.26238492 16 15 C16.09472912 16.51845202 16.1298841 18.04110384 16.125 19.5625 C16.12886719 20.77099609 16.12886719 20.77099609 16.1328125 22.00390625 C16 24 16 24 15 25 C12.20006403 25.10103255 9.42531356 25.13970088 6.625 25.1328125 C5.78533691 25.13376923 4.94567383 25.13472595 4.08056641 25.13571167 C2.30175705 25.13639348 0.52294523 25.13453917 -1.25585938 25.13037109 C-3.98833776 25.12502283 -6.72065176 25.13031605 -9.453125 25.13671875 C-11.1770837 25.13605797 -12.90104229 25.13477681 -14.625 25.1328125 C-15.44790527 25.13483673 -16.27081055 25.13686096 -17.11865234 25.13894653 C-22.88504946 25.11495054 -22.88504946 25.11495054 -24 24 C-24.56996701 19.56173228 -24.44231615 15.96155686 -22.5625 11.875 C-19.10119073 7.99157984 -15.22211027 5.01470823 -11 2 C-10.113125 1.34 -9.22625 0.68 -8.3125 0 C-5.1418235 -1.37110335 -3.33474869 -0.80083251 0 0 Z " fill="#1690E7" transform="translate(52,17)"/>
<path d="M0 0 C8.05555556 4.83333333 8.05555556 4.83333333 10.5 8.5 C10.72705078 10.86010742 10.72705078 10.86010742 10.6953125 13.60546875 C10.69031738 14.49129639 10.68532227 15.37712402 10.68017578 16.28979492 C10.65286377 17.97165894 10.65286377 17.97165894 10.625 19.6875 C10.563125 25.0396875 10.563125 25.0396875 10.5 30.5 C2.58 30.5 -5.34 30.5 -13.5 30.5 C-13.603125 26.973125 -13.70625 23.44625 -13.8125 19.8125 C-13.85802002 18.70946533 -13.90354004 17.60643066 -13.95043945 16.4699707 C-14.05315934 9.22457387 -14.05315934 9.22457387 -11.16796875 5.4453125 C-10.28753906 4.80335937 -9.40710937 4.16140625 -8.5 3.5 C-7.51 2.695625 -6.52 1.89125 -5.5 1.0625 C-2.5 -0.5 -2.5 -0.5 0 0 Z " fill="#42A4ED" transform="translate(49.5,55.5)"/>
<path d="M0 0 C2.9099776 1.30447272 5.12018617 2.39389447 7 5 C7.2172101 7.64996326 7.28351554 10.05076558 7.1875 12.6875 C7.17396484 13.38939453 7.16042969 14.09128906 7.14648438 14.81445312 C7.11120182 16.54329829 7.05739583 18.27174765 7 20 C3.04 20 -0.92 20 -5 20 C-5.13572155 17.60225255 -5.23436868 15.21224755 -5.3125 12.8125 C-5.35439453 12.13896484 -5.39628906 11.46542969 -5.43945312 10.77148438 C-5.53929382 6.67801586 -5.15925343 5.18888197 -2.48046875 2.01171875 C-1.66191406 1.34785156 -0.84335938 0.68398437 0 0 Z " fill="#0471C8" transform="translate(75,66)"/>
<path d="M0 0 C2.9099776 1.30447272 5.12018617 2.39389447 7 5 C7.2172101 7.64996326 7.28351554 10.05076558 7.1875 12.6875 C7.17396484 13.38939453 7.16042969 14.09128906 7.14648438 14.81445312 C7.11120182 16.54329829 7.05739583 18.27174765 7 20 C3.04 20 -0.92 20 -5 20 C-5.13572155 17.60225255 -5.23436868 15.21224755 -5.3125 12.8125 C-5.35439453 12.13896484 -5.39628906 11.46542969 -5.43945312 10.77148438 C-5.53929382 6.67801586 -5.15925343 5.18888197 -2.48046875 2.01171875 C-1.66191406 1.34785156 -0.84335937 0.68398437 0 0 Z " fill="#0370C8" transform="translate(47,66)"/>
<path d="M0 0 C2.9099776 1.30447272 5.12018617 2.39389447 7 5 C7.2172101 7.64996326 7.28351554 10.05076558 7.1875 12.6875 C7.17396484 13.38939453 7.16042969 14.09128906 7.14648438 14.81445312 C7.11120182 16.54329829 7.05739583 18.27174765 7 20 C3.04 20 -0.92 20 -5 20 C-5.13572155 17.60225255 -5.23436868 15.21224755 -5.3125 12.8125 C-5.35439453 12.13896484 -5.39628906 11.46542969 -5.43945312 10.77148438 C-5.53929382 6.67801586 -5.15925343 5.18888197 -2.48046875 2.01171875 C-1.66191406 1.34785156 -0.84335937 0.68398437 0 0 Z " fill="#0471C8" transform="translate(19,66)"/>
<path d="M0 0 C3.04854216 1.14320331 3.98697508 2.07071593 5.5 4.9375 C5.5 6.5875 5.5 8.2375 5.5 9.9375 C1.54 9.9375 -2.42 9.9375 -6.5 9.9375 C-5.9 3.5775 -5.9 3.5775 -4.25 0.9375 C-2.5 -0.0625 -2.5 -0.0625 0 0 Z " fill="#1690E8" transform="translate(78.5,14.0625)"/>
<path d="M0 0 C3.04854216 1.14320331 3.98697508 2.07071593 5.5 4.9375 C5.5 6.5875 5.5 8.2375 5.5 9.9375 C1.54 9.9375 -2.42 9.9375 -6.5 9.9375 C-5.9 3.5775 -5.9 3.5775 -4.25 0.9375 C-2.5 -0.0625 -2.5 -0.0625 0 0 Z " fill="#1690E8" transform="translate(18.5,14.0625)"/>
<path d="M0 0 C3.96 0 7.92 0 12 0 C12 1.32 12 2.64 12 4 C8.04 4 4.08 4 0 4 C0 2.68 0 1.36 0 0 Z " fill="#76D0FA" transform="translate(72,24)"/>
<path d="M0 0 C3.96 0 7.92 0 12 0 C12 1.32 12 2.64 12 4 C8.04 4 4.08 4 0 4 C0 2.68 0 1.36 0 0 Z " fill="#76D0FA" transform="translate(12,24)"/>
</svg>
